<svg version="1.1" id="Layer_1" xmlns="http://www.w3.org/2000/svg" xmlns:xlink="http://www.w3.org/1999/xlink" x="0px" y="0px"
	 width="100%" viewBox="0 0 618 404" enable-background="new 0 0 618 404" xml:space="preserve">
<path fill="#000000" opacity="1.000000" stroke="none" 
	d="
M378.000000,405.000000 
	C252.030670,405.000000 126.561356,405.000000 1.046016,405.000000 
	C1.046016,270.396942 1.046016,135.793869 1.046016,1.095392 
	C206.886002,1.095392 412.772064,1.095392 618.829102,1.095392 
	C618.829102,135.666489 618.829102,270.333221 618.829102,405.000000 
	C538.793823,405.000000 458.646912,405.000000 378.000000,405.000000 
M147.466003,62.008373 
	C147.304123,62.061043 147.142227,62.113716 146.415375,62.210194 
	C145.957916,62.537750 145.500443,62.865303 144.334564,63.084709 
	C143.217941,63.438183 142.101303,63.791653 140.492020,64.152100 
	C140.180420,64.324638 139.999878,64.587273 139.116501,64.983879 
	C138.296341,65.756981 137.476196,66.530083 136.579773,67.303215 
	C136.579773,67.303215 136.516296,67.345497 135.974167,67.142075 
	C135.399963,67.163025 134.825775,67.183968 133.878510,67.127533 
	C133.626877,67.345619 133.375229,67.563705 133.019409,68.586250 
	C136.016571,78.362267 138.924881,88.166664 142.036530,97.906105 
	C145.000931,107.184753 148.288010,116.360603 151.230392,125.645927 
	C154.320541,135.397598 157.169830,145.225586 160.038071,155.787613 
	C162.332596,162.537827 164.745972,169.250412 166.898483,176.045624 
	C172.480392,193.667038 177.913559,211.335526 183.470245,228.964981 
	C188.684525,245.508087 193.875214,262.060089 199.297287,278.535461 
	C201.254410,284.482391 203.853394,290.218079 206.090561,296.450562 
	C206.090561,296.450562 206.183014,296.846222 206.057602,297.575287 
	C206.935883,298.705933 207.599670,300.154419 208.727356,300.915436 
	C215.882126,305.743744 223.178757,310.361267 230.355408,315.157806 
	C249.937698,328.245636 269.492950,341.373962 289.041290,354.512482 
	C308.449219,367.556610 327.814392,380.664581 347.253387,393.662170 
	C350.362885,395.741333 353.760864,397.389038 357.296600,399.766846 
	C359.427338,399.137848 361.797516,398.910614 363.646606,397.808899 
	C370.874969,393.502106 377.816162,388.707672 385.092072,384.487488 
	C396.020050,378.149048 407.206329,372.255920 418.136108,365.920410 
	C421.290253,364.092102 423.941162,361.395752 426.968292,358.251556 
	C427.372467,355.358124 427.632965,352.435852 428.206268,349.576324 
	C430.428345,338.493347 432.954102,327.467743 434.992767,316.352173 
	C439.461609,291.986511 443.631531,267.566132 448.060028,243.192902 
	C451.270721,225.521942 454.756073,207.901047 458.016846,190.238983 
	C461.099548,173.541458 464.049042,156.819336 467.787781,139.714279 
	C468.892365,132.786316 469.996948,125.858360 471.604828,118.755447 
	C470.837463,118.183121 470.070068,117.610794 468.821320,116.389030 
	C462.131531,114.396317 455.435699,112.423553 448.752991,110.407364 
	C422.714203,102.551399 396.665985,94.725937 370.665833,86.744026 
	C368.246643,86.001358 366.141846,84.234756 364.003479,82.199768 
	C366.948822,74.182755 370.183624,66.257133 372.752686,58.121300 
	C375.019501,50.942730 374.707581,43.488293 370.432861,37.148098 
	C363.772797,27.269966 354.620209,20.247265 343.403778,15.930406 
	C332.797974,11.848553 322.180298,9.209830 310.505463,9.754386 
	C299.060852,10.288201 290.293671,14.066734 285.849884,24.667711 
	C281.431183,35.208870 278.070831,46.193668 273.745544,57.688019 
	C271.950806,57.764725 270.150909,57.966270 268.362396,57.892315 
	C264.563293,57.735203 260.770111,57.434734 256.493286,57.088341 
	C256.493286,57.088341 256.008331,57.174278 255.319672,56.801338 
	C253.558167,56.606213 251.796646,56.411083 249.558243,56.063740 
	C249.394119,56.033474 249.230011,56.003208 248.892761,55.514931 
	C248.571136,55.664803 248.249512,55.814671 247.088806,55.997131 
	C240.172318,55.348522 233.258713,54.667084 226.338699,54.058647 
	C214.636368,53.029728 202.933472,52.003468 191.223587,51.066345 
	C186.578339,50.694592 181.540298,49.317204 177.334274,50.577522 
	C168.012039,53.370880 159.103058,57.543407 149.410645,61.008556 
	C148.924637,61.325172 148.438629,61.641788 148.000366,61.997150 
	C148.000366,61.997150 147.972427,61.942307 147.466003,62.008373 
z"/>
<path fill="#79B445" opacity="1.000000" stroke="none" 
	d="
M357.025452,399.236237 
	C353.760864,397.389038 350.362885,395.741333 347.253387,393.662170 
	C327.814392,380.664581 308.449219,367.556610 289.041290,354.512482 
	C269.492950,341.373962 249.937698,328.245636 230.355408,315.157806 
	C223.178757,310.361267 215.882126,305.743744 208.727356,300.915436 
	C207.599670,300.154419 206.935883,298.705933 206.441223,297.171875 
	C208.813522,294.589996 210.985092,292.550568 212.762726,290.211731 
	C231.251053,265.886200 249.704147,241.533707 268.099335,217.137695 
	C272.882141,210.794693 277.429260,204.273956 282.407715,198.011673 
	C287.794830,211.051926 292.842346,223.921906 297.929413,236.776215 
	C300.704987,243.789688 303.547699,250.776596 306.299438,258.165466 
	C311.180603,271.858643 316.163940,285.146637 321.056305,298.467987 
	C333.334259,331.899292 345.571045,365.345703 357.620728,398.891693 
	C357.417145,398.997345 357.025452,399.236237 357.025452,399.236237 
z"/>
<path fill="#A8CD3B" opacity="1.000000" stroke="none" 
	d="
M206.159485,296.050171 
	C203.853394,290.218079 201.254410,284.482391 199.297287,278.535461 
	C193.875214,262.060089 188.684525,245.508087 183.470245,228.964981 
	C177.913559,211.335526 172.480392,193.667038 166.898483,176.045624 
	C164.745972,169.250412 162.332596,162.537827 160.310944,155.168365 
	C166.167999,150.711334 171.720993,146.827194 177.342026,143.044159 
	C196.297195,130.287003 215.304337,117.606758 234.216171,104.785835 
	C236.996414,102.901024 239.368179,100.413673 242.318146,98.168427 
	C243.389771,98.479027 244.072205,98.826302 244.649872,99.583778 
	C241.422379,115.810555 238.212875,131.610596 235.193848,147.446960 
	C227.443024,188.103912 219.826157,228.786438 212.038177,269.436218 
	C210.329330,278.355591 208.131912,287.181305 206.159485,296.050171 
z"/>
<path fill="#F3EA4B" opacity="1.000000" stroke="none" 
	d="
M467.057129,140.108017 
	C464.049042,156.819336 461.099548,173.541458 458.016846,190.238983 
	C454.756073,207.901047 451.270721,225.521942 448.060028,243.192902 
	C443.631531,267.566132 439.461609,291.986511 434.992767,316.352173 
	C432.954102,327.467743 430.428345,338.493347 428.206268,349.576324 
	C427.632965,352.435852 427.372467,355.358124 426.570435,358.547119 
	C425.772888,358.338654 425.203705,357.895416 424.997803,357.321808 
	C415.189056,329.995361 405.395538,302.663391 395.669891,275.307312 
	C395.069641,273.618866 395.031921,271.730408 394.873779,269.641754 
	C395.287567,268.531586 395.560028,267.714691 395.914062,266.678314 
	C395.995636,266.458832 396.077148,265.997650 396.043396,266.003265 
	C396.009644,266.008881 396.029602,266.074341 396.320862,265.889404 
	C398.769440,261.153046 400.926758,256.601624 403.065643,252.022247 
	C403.047211,251.994293 403.045837,252.061203 403.284576,251.886673 
	C403.745850,251.176071 403.968414,250.640015 404.129608,250.062836 
	C404.068268,250.021729 404.161682,250.136078 404.446228,249.949783 
	C405.537231,247.862671 406.343689,245.961853 407.112274,244.042740 
	C407.074432,244.024445 407.099243,244.104797 407.333313,243.915100 
	C407.781158,243.168060 407.994934,242.610703 408.466614,241.836243 
	C421.096924,217.134583 433.441467,192.635895 445.852600,168.170975 
	C452.844086,154.389206 459.945312,140.663071 467.242554,127.217697 
	C467.434662,129.564316 467.394623,131.605560 467.324402,133.645767 
	C467.250275,135.800354 467.147400,137.953979 467.057129,140.108017 
z"/>
<path fill="#179247" opacity="1.000000" stroke="none" 
	d="
M206.125031,296.250366 
	C208.131912,287.181305 210.329330,278.355591 212.038177,269.436218 
	C219.826157,228.786438 227.443024,188.103912 235.193848,147.446960 
	C238.212875,131.610596 241.422379,115.810555 244.666321,99.540527 
	C244.787521,99.087082 244.810471,98.993507 244.902893,99.349380 
	C252.289658,118.332695 259.606110,136.951538 266.867432,155.591858 
	C269.764252,163.028229 272.632172,170.478485 275.341736,177.984360 
	C277.714172,184.556152 279.846344,191.214661 282.084625,197.834869 
	C277.429260,204.273956 272.882141,210.794693 268.099335,217.137695 
	C249.704147,241.533707 231.251053,265.886200 212.762726,290.211731 
	C210.985092,292.550568 208.813522,294.589996 206.503937,296.807343 
	C206.183014,296.846222 206.090561,296.450562 206.125031,296.250366 
z"/>
<path fill="#79B345" opacity="1.000000" stroke="none" 
	d="
M241.928940,98.205109 
	C239.368179,100.413673 236.996414,102.901024 234.216171,104.785835 
	C215.304337,117.606758 196.297195,130.287003 177.342026,143.044159 
	C171.720993,146.827194 166.167999,150.711334 160.354111,154.784683 
	C157.169830,145.225586 154.320541,135.397598 151.230392,125.645927 
	C148.288010,116.360603 145.000931,107.184753 142.036530,97.906105 
	C138.924881,88.166664 136.016571,78.362267 133.364380,68.062965 
	C133.890106,67.428093 134.070847,67.316505 134.251572,67.204918 
	C134.825775,67.183968 135.399963,67.163025 136.524673,67.570801 
	C144.137329,70.331055 151.123428,72.934586 158.278168,74.934959 
	C171.375183,78.596733 184.613480,81.752434 197.715897,85.395912 
	C212.497849,89.506447 227.194946,93.922142 241.928940,98.205109 
z"/>
<path fill="#F89E37" opacity="1.000000" stroke="none" 
	d="
M394.732452,269.935028 
	C395.031921,271.730408 395.069641,273.618866 395.669891,275.307312 
	C405.395538,302.663391 415.189056,329.995361 424.997803,357.321808 
	C425.203705,357.895416 425.772888,358.338654 426.497711,358.970032 
	C423.941162,361.395752 421.290253,364.092102 418.136108,365.920410 
	C407.206329,372.255920 396.020050,378.149048 385.092072,384.487488 
	C377.816162,388.707672 370.874969,393.502106 363.646606,397.808899 
	C361.797516,398.910614 359.427338,399.137848 357.161011,399.501526 
	C357.025452,399.236237 357.417145,398.997345 357.877380,398.785767 
	C358.997803,396.908051 359.820282,395.286682 360.293884,393.569122 
	C367.616425,367.013641 374.941467,340.458618 382.162476,313.875366 
	C386.120270,299.305084 389.884644,284.682312 393.985657,270.043365 
	C394.400879,269.980713 394.566650,269.957886 394.732452,269.935028 
z"/>
<path fill="#64348C" opacity="1.000000" stroke="none" 
	d="
M242.318146,98.168427 
	C227.194946,93.922142 212.497849,89.506447 197.715897,85.395912 
	C184.613480,81.752434 171.375183,78.596733 158.278168,74.934959 
	C151.123428,72.934586 144.137329,70.331055 136.795746,67.672516 
	C136.516296,67.345497 136.579773,67.303215 137.011230,67.270615 
	C141.586548,67.148521 145.747971,67.267128 149.870010,66.919182 
	C155.590118,66.436356 161.280624,65.603249 167.320679,64.932556 
	C168.106400,64.925453 168.555283,64.905891 169.400192,64.940292 
	C170.857315,64.947929 171.918381,64.901611 173.356644,64.879593 
	C174.488708,64.881866 175.243576,64.859825 176.455536,64.890656 
	C184.279480,64.294815 191.646362,63.646118 199.346161,63.005219 
	C200.122284,62.988777 200.565491,62.964535 201.473969,62.985245 
	C207.235092,62.937416 212.542084,63.031879 217.824875,62.718437 
	C237.438446,61.554722 257.044067,60.256721 276.690430,59.346294 
	C272.830475,64.610405 268.958466,69.558037 265.029083,74.459625 
	C258.706116,82.347008 252.345200,90.203995 245.990997,98.035889 
	C245.981689,97.997948 246.057190,97.977875 245.887207,98.093140 
	C245.494797,98.371475 245.306946,98.567680 245.098969,98.900452 
	C245.044266,99.003891 244.810471,98.993507 244.810471,98.993507 
	C244.810471,98.993507 244.787521,99.087082 244.771072,99.130333 
	C244.072205,98.826302 243.389771,98.479027 242.318146,98.168427 
z"/>
<path fill="#169249" opacity="1.000000" stroke="none" 
	d="
M274.246338,56.983917 
	C278.070831,46.193668 281.431183,35.208870 285.849884,24.667711 
	C290.293671,14.066734 299.060852,10.288201 310.505463,9.754386 
	C322.180298,9.209830 332.797974,11.848553 343.403778,15.930406 
	C354.620209,20.247265 363.772797,27.269966 370.432861,37.148098 
	C374.707581,43.488293 375.019501,50.942730 372.752686,58.121300 
	C370.183624,66.257133 366.948822,74.182755 363.524475,82.590759 
	C357.003357,81.297775 350.961243,79.613800 344.951324,77.534302 
	C347.793640,68.460243 350.492706,59.743492 353.460663,51.119274 
	C354.949341,46.793484 354.826050,42.755943 352.331909,38.969601 
	C344.602814,27.235968 333.035095,23.508369 319.662628,22.866589 
	C312.439148,22.519913 305.697754,27.963631 303.367828,34.366936 
	C300.051941,43.480038 296.992615,52.686508 293.408081,61.881538 
	C291.324799,61.922916 289.657135,61.935848 287.994537,61.977310 
	C287.999603,62.005836 288.057281,61.999771 287.916626,61.769997 
	C287.451111,61.394939 287.126312,61.249649 286.450867,61.012238 
	C283.079468,59.995419 280.058685,59.070728 276.744720,58.068947 
	C275.716461,57.655880 274.981384,57.319897 274.246338,56.983917 
z"/>
<path fill="#E95F32" opacity="1.000000" stroke="none" 
	d="
M466.997131,126.911888 
	C459.945312,140.663071 452.844086,154.389206 445.852600,168.170975 
	C433.441467,192.635895 421.096924,217.134583 408.208710,242.009064 
	C407.495026,242.967590 407.297150,243.536194 407.099243,244.104797 
	C407.099243,244.104797 407.074432,244.024445 406.791138,244.196136 
	C405.725769,246.290573 404.943726,248.213333 404.161682,250.136078 
	C404.161682,250.136078 404.068268,250.021729 403.874390,250.170898 
	C403.426575,250.584198 403.172638,250.848328 402.628204,251.074341 
	C401.859955,250.721756 401.382172,250.407288 400.923798,249.805237 
	C400.942200,249.325500 400.941162,249.133331 400.948792,248.526550 
	C402.640930,241.386444 404.210297,234.629913 406.031311,227.941895 
	C409.935577,213.602463 413.969727,199.298401 418.318420,184.912766 
	C421.884796,182.107635 422.262146,178.727982 420.940186,174.632950 
	C420.969421,173.869202 420.992615,173.433014 421.348602,172.906525 
	C422.107208,170.868866 422.533020,168.921524 422.979126,166.586105 
	C423.682343,163.463272 424.365204,160.728485 425.379150,157.904449 
	C431.572357,153.334442 430.464050,147.083145 429.988708,140.590927 
	C430.636169,136.784821 431.278625,133.379150 431.940186,129.786057 
	C431.959259,129.598648 431.991669,129.223282 432.342621,129.092789 
	C433.434906,128.921967 434.176239,128.881638 435.099762,129.037582 
	C435.841522,128.835861 436.401123,128.437881 436.973724,127.995407 
	C436.986755,127.950928 437.076843,127.972733 437.320007,127.954880 
	C437.995148,127.734474 438.427094,127.531929 439.188324,127.171768 
	C439.999084,126.982735 440.480560,126.951302 441.218079,127.156242 
	C447.561462,126.108978 454.018372,125.874344 459.255432,121.054741 
	C462.824005,119.590324 466.063354,118.314392 469.302704,117.038467 
	C470.070068,117.610794 470.837463,118.183121 471.078308,119.057007 
	C469.366913,121.876343 468.182007,124.394119 466.997131,126.911888 
z"/>
<path fill="#365397" opacity="1.000000" stroke="none" 
	d="
M434.917572,128.841309 
	C434.176239,128.881638 433.434906,128.921967 432.038940,128.970276 
	C430.574585,128.678497 429.764893,128.378708 428.781036,127.776924 
	C419.549652,123.299240 410.496216,119.115349 401.434479,114.949448 
	C374.982941,102.789040 348.495636,90.705818 322.089722,78.447220 
	C310.637939,73.130875 299.351196,67.459114 287.989471,61.948776 
	C289.657135,61.935848 291.324799,61.922916 293.565704,62.247459 
	C294.494049,62.930641 294.791168,63.464874 295.212677,63.594551 
	C306.301910,67.006042 317.380920,70.454224 328.513733,73.718712 
	C333.928253,75.306419 339.447357,76.537376 344.919128,77.929825 
	C350.961243,79.613800 357.003357,81.297775 363.468262,82.962662 
	C366.141846,84.234756 368.246643,86.001358 370.665833,86.744026 
	C396.665985,94.725937 422.714203,102.551399 448.752991,110.407364 
	C455.435699,112.423553 462.131531,114.396317 469.062012,116.713745 
	C466.063354,118.314392 462.824005,119.590324 458.883148,121.003281 
	C452.441772,123.066833 446.701904,124.993355 440.962036,126.919876 
	C440.480560,126.951302 439.999084,126.982735 438.933105,127.112473 
	C437.924683,127.464760 437.500763,127.718742 437.076843,127.972733 
	C437.076843,127.972733 436.986755,127.950928 436.683411,127.961441 
	C435.892609,128.261749 435.405090,128.551529 434.917572,128.841309 
z"/>
<path fill="#1B77B4" opacity="1.000000" stroke="none" 
	d="
M201.008713,62.940292 
	C200.565491,62.964535 200.122284,62.988777 199.017242,62.761993 
	C191.525970,62.775364 184.694412,63.000542 177.870468,63.367722 
	C177.221985,63.402615 176.621323,64.326576 175.998459,64.837784 
	C175.243576,64.859825 174.488708,64.881866 173.112534,64.683777 
	C171.328873,64.604546 170.166519,64.745438 169.004150,64.886330 
	C168.555283,64.905891 168.106400,64.925453 166.982910,64.703079 
	C159.905594,64.796722 153.505539,65.211731 147.098770,65.426590 
	C144.724091,65.506226 142.333633,65.115959 139.950378,64.939995 
	C139.999878,64.587273 140.180420,64.324638 140.992767,64.349823 
	C142.676666,64.095985 143.859818,63.644421 145.042984,63.192856 
	C145.500443,62.865303 145.957916,62.537750 146.827026,62.290733 
	C147.600128,62.460079 147.844727,62.317089 147.972427,61.942307 
	C147.972427,61.942307 148.000366,61.997150 148.263428,61.961266 
	C149.026169,61.668102 149.525864,61.410820 150.025558,61.153538 
	C159.103058,57.543407 168.012039,53.370880 177.334274,50.577522 
	C181.540298,49.317204 186.578339,50.694592 191.223587,51.066345 
	C202.933472,52.003468 214.636368,53.029728 226.338699,54.058647 
	C233.258713,54.667084 240.172318,55.348522 247.792801,55.988396 
	C248.686508,55.977421 248.876205,55.975185 249.065918,55.972946 
	C249.230011,56.003208 249.394119,56.033474 250.065155,56.326492 
	C251.466248,57.017132 252.360443,57.445023 253.796249,58.132080 
	C252.641785,58.566269 252.210739,58.852798 251.764969,58.877934 
	C238.888046,59.604000 226.003021,60.204742 213.135391,61.066113 
	C209.069565,61.338280 205.049637,62.296200 201.008713,62.940292 
z"/>
<path fill="#366DAE" opacity="1.000000" stroke="none" 
	d="
M201.473969,62.985241 
	C205.049637,62.296200 209.069565,61.338280 213.135391,61.066113 
	C226.003021,60.204742 238.888046,59.604000 251.764969,58.877934 
	C252.210739,58.852798 252.641785,58.566269 253.796249,58.132080 
	C252.360443,57.445023 251.466248,57.017132 250.303589,56.402599 
	C251.796646,56.411083 253.558167,56.606213 255.768845,57.089615 
	C256.218018,57.377888 256.624603,57.436440 256.624603,57.436440 
	C256.624603,57.436440 256.974518,57.193031 256.974518,57.193031 
	C260.770111,57.434734 264.563293,57.735203 268.362396,57.892315 
	C270.150909,57.966270 271.950806,57.764725 273.995941,57.335968 
	C274.981384,57.319897 275.716461,57.655880 276.653931,58.286430 
	C276.856323,58.581005 276.652649,59.009148 276.652649,59.009148 
	C257.044067,60.256721 237.438446,61.554722 217.824875,62.718437 
	C212.542084,63.031879 207.235092,62.937416 201.473969,62.985241 
z"/>
<path fill="#366DAE" opacity="1.000000" stroke="none" 
	d="
M139.533447,64.961937 
	C142.333633,65.115959 144.724091,65.506226 147.098770,65.426590 
	C153.505539,65.211731 159.905594,64.796722 166.646057,64.690620 
	C161.280624,65.603249 155.590118,66.436356 149.870010,66.919182 
	C145.747971,67.267128 141.586548,67.148521 137.049362,67.270599 
	C137.476196,66.530083 138.296341,65.756981 139.533447,64.961937 
z"/>
<path fill="#F5E78B" opacity="1.000000" stroke="none" 
	d="
M467.242584,127.217712 
	C468.182007,124.394119 469.366913,121.876343 470.826691,119.144485 
	C469.996948,125.858360 468.892365,132.786316 467.422424,139.911148 
	C467.147400,137.953979 467.250275,135.800354 467.324402,133.645767 
	C467.394623,131.605560 467.434662,129.564316 467.242584,127.217712 
z"/>
<path fill="#366DAE" opacity="1.000000" stroke="none" 
	d="
M144.688782,63.138783 
	C143.859818,63.644421 142.676666,64.095985 141.239090,64.346344 
	C142.101303,63.791653 143.217941,63.438183 144.688782,63.138783 
z"/>
<path fill="#366DAE" opacity="1.000000" stroke="none" 
	d="
M149.718109,61.081047 
	C149.525864,61.410820 149.026169,61.668102 148.239548,61.941895 
	C148.438629,61.641788 148.924637,61.325172 149.718109,61.081047 
z"/>
<path fill="#1B77B4" opacity="1.000000" stroke="none" 
	d="
M256.733887,57.140686 
	C256.974518,57.193031 256.624603,57.436440 256.624603,57.436440 
	C256.624603,57.436440 256.218018,57.377888 256.113159,57.276085 
	C256.008331,57.174278 256.493286,57.088341 256.733887,57.140686 
z"/>
<path fill="#366DAE" opacity="1.000000" stroke="none" 
	d="
M248.979340,55.743938 
	C248.876205,55.975185 248.686508,55.977421 248.212341,55.972099 
	C248.249512,55.814671 248.571136,55.664803 248.979340,55.743938 
z"/>
<path fill="#366DAE" opacity="1.000000" stroke="none" 
	d="
M147.719208,61.975342 
	C147.844727,62.317089 147.600128,62.460079 147.109497,62.268829 
	C147.142227,62.113716 147.304123,62.061043 147.719208,61.975342 
z"/>
<path fill="#64348C" opacity="1.000000" stroke="none" 
	d="
M134.065033,67.166229 
	C134.070847,67.316505 133.890106,67.428093 133.416473,67.660736 
	C133.375229,67.563705 133.626877,67.345619 134.065033,67.166229 
z"/>
<path fill="#E76031" opacity="1.000000" stroke="none" 
	d="
M428.955170,128.078934 
	C429.764893,128.378708 430.574585,128.678497 431.687988,129.100769 
	C431.991669,129.223282 431.959259,129.598648 431.661896,129.958191 
	C413.023438,148.409882 394.654114,166.473572 376.348511,184.601532 
	C354.331085,206.405243 332.342316,228.238113 310.436829,250.154037 
	C308.926453,251.665131 308.212433,253.972229 307.084473,256.166382 
	C306.813965,256.874237 306.587036,257.324860 306.360107,257.775482 
	C303.547699,250.776596 300.704987,243.789688 297.929413,236.776215 
	C292.842346,223.921906 287.794830,211.051926 282.407715,198.011673 
	C279.846344,191.214661 277.714172,184.556152 275.341736,177.984360 
	C272.632172,170.478485 269.764252,163.028229 266.867432,155.591858 
	C259.606110,136.951538 252.289658,118.332695 244.902893,99.349380 
	C244.810471,98.993507 245.044266,99.003891 245.326706,98.872009 
	C245.917679,98.579750 246.067032,98.325668 246.057190,97.977875 
	C246.057190,97.977875 245.981689,97.997948 246.385727,98.123711 
	C268.281586,101.814133 289.773468,105.378441 311.265198,108.943542 
	C330.627502,112.155411 349.981659,115.417595 369.354126,118.566795 
	C389.211823,121.794876 409.087402,124.912796 428.955170,128.078934 
z"/>
<path fill="#E8453B" opacity="1.000000" stroke="none" 
	d="
M306.299408,258.165466 
	C306.587036,257.324860 306.813965,256.874237 307.503662,256.189789 
	C309.610168,256.136444 311.269226,256.228516 312.895325,256.510620 
	C338.312958,260.920288 363.726318,265.354492 389.518982,269.841888 
	C390.921814,269.891693 391.946320,269.882629 393.160095,269.933472 
	C393.349396,269.993378 393.736206,270.083191 393.736206,270.083191 
	C389.884644,284.682312 386.120270,299.305084 382.162476,313.875366 
	C374.941467,340.458618 367.616425,367.013641 360.293884,393.569122 
	C359.820282,395.286682 358.997803,396.908051 358.080994,398.680115 
	C345.571045,365.345703 333.334259,331.899292 321.056305,298.467987 
	C316.163940,285.146637 311.180603,271.858643 306.299408,258.165466 
z"/>
<path fill="#F38F2D" opacity="1.000000" stroke="none" 
	d="
M389.140686,269.783020 
	C363.726318,265.354492 338.312958,260.920288 312.895325,256.510620 
	C311.269226,256.228516 309.610168,256.136444 307.547272,255.932587 
	C308.212433,253.972229 308.926453,251.665131 310.436829,250.154037 
	C332.342316,228.238113 354.331085,206.405243 376.348511,184.601532 
	C394.654114,166.473572 413.023438,148.409882 431.642822,130.145599 
	C431.278625,133.379150 430.636169,136.784821 429.754700,140.871826 
	C428.026459,147.033340 426.537262,152.513519 425.048065,157.993713 
	C424.365204,160.728485 423.682343,163.463272 422.755890,166.855957 
	C422.013489,169.341522 421.514648,171.169174 421.015808,172.996826 
	C420.992615,173.433014 420.969421,173.869202 420.714294,174.910400 
	C419.638428,178.670227 418.794556,181.825043 417.950684,184.979858 
	C413.969727,199.298401 409.935577,213.602463 406.031311,227.941895 
	C404.210297,234.629913 402.640930,241.386444 400.827026,248.649078 
	C400.654633,249.293045 400.552917,249.421814 400.582489,249.502396 
	C400.658875,249.710556 400.793182,249.897446 400.904358,250.092834 
	C401.382172,250.407288 401.859955,250.721756 402.660980,251.310852 
	C402.984222,251.585480 403.045837,252.061203 403.045837,252.061203 
	C403.045837,252.061203 403.047211,251.994293 402.673523,251.985626 
	C401.087585,252.835281 399.165588,253.460571 398.793152,254.594696 
	C397.569275,258.321869 396.907410,262.233551 396.029602,266.074341 
	C396.029602,266.074341 396.009644,266.008881 395.921997,266.085388 
	C395.604523,266.394623 395.603882,266.639923 395.832458,266.897797 
	C395.560028,267.714691 395.287567,268.531586 394.873779,269.641754 
	C394.566650,269.957886 394.400879,269.980713 393.985657,270.043365 
	C393.736206,270.083191 393.349396,269.993378 393.093384,269.664398 
	C391.605164,269.484619 390.372925,269.633820 389.140686,269.783020 
z"/>
<path fill="#E06E28" opacity="1.000000" stroke="none" 
	d="
M396.320862,265.889404 
	C396.907410,262.233551 397.569275,258.321869 398.793152,254.594696 
	C399.165588,253.460571 401.087585,252.835281 402.691956,252.013565 
	C400.926758,256.601624 398.769440,261.153046 396.320862,265.889404 
z"/>
<path fill="#E06E28" opacity="1.000000" stroke="none" 
	d="
M404.446228,249.949783 
	C404.943726,248.213333 405.725769,246.290573 406.828979,244.214432 
	C406.343689,245.961853 405.537231,247.862671 404.446228,249.949783 
z"/>
<path fill="#E06E28" opacity="1.000000" stroke="none" 
	d="
M407.333313,243.915100 
	C407.297150,243.536194 407.495026,242.967590 407.950806,242.226166 
	C407.994934,242.610703 407.781158,243.168060 407.333313,243.915100 
z"/>
<path fill="#E06E28" opacity="1.000000" stroke="none" 
	d="
M403.284576,251.886673 
	C403.045837,252.061203 402.984222,251.585480 402.951447,251.348969 
	C403.172638,250.848328 403.426575,250.584198 403.935730,250.212006 
	C403.968414,250.640015 403.745850,251.176071 403.284576,251.886673 
z"/>
<path fill="#E06E28" opacity="1.000000" stroke="none" 
	d="
M395.914062,266.678314 
	C395.603882,266.639923 395.604523,266.394623 395.955750,266.079773 
	C396.077148,265.997650 395.995636,266.458832 395.914062,266.678314 
z"/>
<path fill="#27265D" opacity="1.000000" stroke="none" 
	d="
M428.781036,127.776924 
	C409.087402,124.912796 389.211823,121.794876 369.354126,118.566795 
	C349.981659,115.417595 330.627502,112.155411 311.265198,108.943542 
	C289.773468,105.378441 268.281586,101.814133 246.395035,98.161652 
	C252.345200,90.203995 258.706116,82.347008 265.029083,74.459625 
	C268.958466,69.558037 272.830475,64.610405 276.690430,59.346294 
	C276.652649,59.009148 276.856323,58.581005 276.947144,58.363522 
	C280.058685,59.070728 283.079468,59.995419 286.632233,61.200718 
	C287.461914,61.654144 287.759613,61.826958 288.057281,61.999771 
	C288.057281,61.999771 287.999603,62.005836 287.994537,61.977306 
	C299.351196,67.459114 310.637939,73.130875 322.089722,78.447220 
	C348.495636,90.705818 374.982941,102.789040 401.434479,114.949448 
	C410.496216,119.115349 419.549652,123.299240 428.781036,127.776924 
z"/>
<path fill="#366DAE" opacity="1.000000" stroke="none" 
	d="
M176.455536,64.890656 
	C176.621323,64.326576 177.221985,63.402615 177.870468,63.367722 
	C184.694412,63.000542 191.525970,62.775364 198.684341,62.754192 
	C191.646362,63.646118 184.279480,64.294815 176.455536,64.890656 
z"/>
<path fill="#366DAE" opacity="1.000000" stroke="none" 
	d="
M169.400192,64.940292 
	C170.166519,64.745438 171.328873,64.604546 172.735352,64.659470 
	C171.918381,64.901611 170.857315,64.947929 169.400192,64.940292 
z"/>
<path fill="#27265D" opacity="1.000000" stroke="none" 
	d="
M245.887207,98.093140 
	C246.067032,98.325668 245.917679,98.579750 245.381409,98.768570 
	C245.306946,98.567680 245.494797,98.371475 245.887207,98.093140 
z"/>
<path fill="#000000" opacity="1.000000" stroke="none" 
	d="
M344.951324,77.534302 
	C339.447357,76.537376 333.928253,75.306419 328.513733,73.718712 
	C317.380920,70.454224 306.301910,67.006042 295.212677,63.594551 
	C294.791168,63.464874 294.494049,62.930641 293.981323,62.219009 
	C296.992615,52.686508 300.051941,43.480038 303.367828,34.366936 
	C305.697754,27.963631 312.439148,22.519913 319.662628,22.866589 
	C333.035095,23.508369 344.602814,27.235968 352.331909,38.969601 
	C354.826050,42.755943 354.949341,46.793484 353.460663,51.119274 
	C350.492706,59.743492 347.793640,68.460243 344.951324,77.534302 
z"/>
<path fill="#365397" opacity="1.000000" stroke="none" 
	d="
M287.916626,61.769997 
	C287.759613,61.826958 287.461914,61.654144 286.982849,61.292847 
	C287.126312,61.249649 287.451111,61.394939 287.916626,61.769997 
z"/>
<path fill="#E76031" opacity="1.000000" stroke="none" 
	d="
M425.379150,157.904449 
	C426.537262,152.513519 428.026459,147.033340 429.749695,141.272247 
	C430.464050,147.083145 431.572357,153.334442 425.379150,157.904449 
z"/>
<path fill="#E76031" opacity="1.000000" stroke="none" 
	d="
M441.218079,127.156242 
	C446.701904,124.993355 452.441772,123.066833 458.553894,121.191772 
	C454.018372,125.874344 447.561462,126.108978 441.218079,127.156242 
z"/>
<path fill="#E76031" opacity="1.000000" stroke="none" 
	d="
M418.318390,184.912766 
	C418.794556,181.825043 419.638428,178.670227 420.708191,175.237961 
	C422.262146,178.727982 421.884796,182.107635 418.318390,184.912766 
z"/>
<path fill="#E76031" opacity="1.000000" stroke="none" 
	d="
M421.348602,172.906525 
	C421.514648,171.169174 422.013489,169.341522 422.735596,167.244019 
	C422.533020,168.921524 422.107208,170.868866 421.348602,172.906525 
z"/>
<path fill="#E76031" opacity="1.000000" stroke="none" 
	d="
M435.099762,129.037598 
	C435.405090,128.551529 435.892609,128.261749 436.670410,128.005920 
	C436.401123,128.437881 435.841522,128.835861 435.099762,129.037598 
z"/>
<path fill="#E76031" opacity="1.000000" stroke="none" 
	d="
M437.320007,127.954880 
	C437.500763,127.718742 437.924683,127.464760 438.603821,127.270081 
	C438.427094,127.531929 437.995148,127.734474 437.320007,127.954880 
z"/>
<path fill="#E06E28" opacity="1.000000" stroke="none" 
	d="
M400.923798,249.805237 
	C400.793182,249.897446 400.658875,249.710556 400.582489,249.502396 
	C400.552917,249.421814 400.654633,249.293045 400.818329,249.063705 
	C400.941162,249.133331 400.942200,249.325500 400.923798,249.805237 
z"/>
<path fill="#F89E37" opacity="1.000000" stroke="none" 
	d="
M389.518982,269.841858 
	C390.372925,269.633820 391.605164,269.484619 392.904114,269.604492 
	C391.946320,269.882629 390.921814,269.891693 389.518982,269.841858 
z"/>
</svg>